<?xml version="1.0" encoding="utf-8"?>
<!-- Generator: Adobe Illustrator 25.0.1, SVG Export Plug-In . SVG Version: 6.00 Build 0)  -->
<svg version="1.1" id="Réteg_1" xmlns="http://www.w3.org/2000/svg" xmlns:xlink="http://www.w3.org/1999/xlink" x="0px" y="0px"
	 viewBox="0 0 217.8 130.4" style="enable-background:new 0 0 217.8 130.4;" xml:space="preserve">
<style type="text/css">
	.st0{display:none;}
	.st1{fill:#EB601C;}
	.st2{fill:#F6F6F6;}
	.st3{font-family:'BebasNeue-Regular';}
	.st4{font-size:29px;}
	.st5{letter-spacing:1;}
</style>
<rect x="-101.1" y="5.2" class="st0" width="422" height="120"/>
<g>
	<g>
		<path class="st1" d="M66.2,48.9c0.1-0.4,0.6-1.4,1.2-2.9s1.6-3.5,2.8-6c1.2-2.5,2.5-5.5,4.1-8.9s3.4-7.3,5.3-11.6
			c0.1-0.2,0.2-0.5,0.3-0.7s0.1-0.5,0.1-0.7c0-0.3-0.1-0.5-0.2-0.7s-0.5-0.2-1-0.2c-1.2,0-2.1,0.4-2.9,1.1s-1.3,1.6-1.6,2.6
			c-0.3,1-0.5,2.1-0.5,3.1c0,0.2,0,0.5,0,0.9c0,0.3,0.1,0.7,0.1,1.1c-0.7,0-1.2-0.2-1.7-0.6s-0.8-0.9-1-1.5
			c-0.2-0.6-0.3-1.2-0.3-1.7c0-0.9,0.3-1.8,0.8-2.6s1.2-1.6,2-2.3c0.8-0.7,1.8-1.2,2.8-1.6c1-0.4,2-0.6,3-0.6c1,0,1.9,0.3,2.7,0.9
			s1.3,1.6,1.7,3.1s0.6,3.6,0.6,6.4c0,1.8-0.1,3.7-0.2,5.5c-0.1,1.9-0.3,3.6-0.4,5.2c-0.1,1.6-0.2,3-0.2,4.2
			c0.6-1.7,1.2-3.4,2.1-5.3s1.7-3.7,2.7-5.5c0.9-1.8,1.9-3.6,2.8-5.2c0.9-1.6,1.8-3,2.5-4.3c0.7-1.2,1.3-2.1,1.7-2.7
			c0.4-0.6,0.7-1.1,1.1-1.4c0.3-0.3,0.7-0.5,1.3-0.5c0.4,0,1,0.1,1.8,0.5c-0.2,0.5-0.6,1.4-0.9,2.5c-0.3,1.2-0.7,2.5-1.1,4
			c-0.4,1.7-0.8,3.5-1.3,5.5c-0.4,2-0.8,4-1.1,6.1c-0.3,2-0.6,4-0.8,5.8c-0.2,1.8-0.3,3.5-0.3,4.8c0,0.7,0,1.3,0.1,1.7
			c0.1,0.4,0.2,0.8,0.3,1.1c0.1,0.3,0.3,0.7,0.4,1.2c-1.2,0-2.1-0.2-2.8-0.5c-0.6-0.4-1.1-0.9-1.3-1.7c-0.2-0.8-0.3-1.8-0.3-3.2
			c0-3.1,0.4-6.4,1.1-9.8s1.6-7,2.5-10.6c-0.8,1.1-1.6,2.5-2.4,4c-0.8,1.5-1.7,3.2-2.5,4.9c-0.8,1.7-1.6,3.4-2.3,5.1
			c-0.7,1.7-1.4,3.2-1.9,4.6s-1,2.6-1.3,3.5c-0.2,0.1-0.4,0.1-0.5,0.2s-0.2,0-0.4,0c-1,0-1.6-0.6-1.9-1.8c-0.3-1.2-0.4-2.8-0.4-4.9
			c0-1.1,0-2.3,0-3.5s0.1-2.5,0.1-3.8s0.1-2.6,0.1-3.9c0-1.3,0-2.5,0-3.7c0-0.4,0-0.8,0-1.3c0-0.4,0-0.8,0-1.2
			c-2.1,5-3.9,9.2-5.4,12.7c-1.5,3.5-2.7,6.4-3.8,8.6s-2,3.8-2.9,4.8C68,48.4,67.1,48.9,66.2,48.9z"/>
		<path class="st1" d="M105.1,47.1c-1.8,0-3.2-0.5-4.1-1.5s-1.4-2.2-1.4-3.6c0-1.2,0.3-2.5,0.9-3.9c0.6-1.4,1.5-2.7,2.5-3.9
			s2.2-2.2,3.5-3c1.3-0.8,2.6-1.1,3.9-1.1c0.7,0,1.4,0.2,2.1,0.6s1,1.1,1,2.2c0,1.1-0.3,2.1-0.9,3c-0.6,0.9-1.4,1.8-2.5,2.5
			s-2.2,1.3-3.4,1.8c-1.2,0.5-2.5,0.8-3.8,0.9c0,0.1-0.1,0.2-0.1,0.4c0,0.1,0,0.3,0,0.6c0,0.1,0,0.4,0.1,0.7c0,0.3,0.2,0.7,0.4,1.1
			s0.5,0.7,1,1c0.4,0.3,1.1,0.4,1.8,0.4c1.2,0,2.4-0.3,3.6-1s2.3-1.5,3.4-2.6s1.9-2.3,2.6-3.7l0.8,0.7c-0.8,1.7-1.7,3.2-2.9,4.4
			c-1.2,1.3-2.5,2.2-3.9,2.9C108.1,46.8,106.6,47.1,105.1,47.1z M103.3,39.5c0.7-0.1,1.5-0.3,2.4-0.8s1.8-1,2.6-1.6
			c0.8-0.6,1.5-1.3,2-2.1c0.5-0.8,0.8-1.5,0.8-2.3c0-0.3-0.1-0.5-0.2-0.6s-0.3-0.2-0.6-0.2c-0.6,0-1.3,0.2-2,0.7s-1.4,1.1-2.1,1.8
			c-0.7,0.7-1.3,1.6-1.8,2.5C104.1,37.8,103.7,38.7,103.3,39.5z"/>
		<path class="st1" d="M128.7,46.1c-1.1,0-1.9-0.3-2.5-0.8s-0.9-1.2-0.9-2.1c0-0.6,0.1-1.2,0.3-1.8c0.2-0.6,0.4-1.3,0.6-1.9
			s0.3-1.3,0.3-1.8c0-0.6-0.2-1-0.4-1.3c-0.3-0.2-0.6-0.4-1-0.4c-0.8,0-1.7,0.3-2.6,1c-0.9,0.7-1.7,1.5-2.6,2.6
			c-0.8,1-1.6,2.1-2.3,3.2s-1.4,2.1-1.9,3c-0.5,0-1-0.1-1.5-0.3c-0.5-0.2-0.9-0.5-1.2-0.9c0-0.1,0.2-0.6,0.5-1.3s0.6-1.6,1-2.6
			c0.4-1,0.7-2,1-3.1s0.4-2.1,0.4-3c0.2-0.2,0.5-0.5,0.9-0.7c0.4-0.2,0.8-0.3,1.3-0.3c1,0,1.5,0.4,1.5,1.3c0,0.3-0.1,0.8-0.2,1.5
			c-0.1,0.7-0.3,1.4-0.5,2.2c0.7-1,1.5-1.9,2.4-2.8c0.9-0.9,1.8-1.6,2.7-2.1s1.9-0.8,2.8-0.8c1.2,0,2.1,0.4,2.7,1.2
			c0.6,0.8,0.9,1.7,0.9,2.7c0,0.8-0.1,1.6-0.4,2.3s-0.6,1.4-0.8,2.1c-0.3,0.6-0.4,1.3-0.4,1.9c0,0.5,0.1,0.8,0.3,1s0.4,0.3,0.7,0.3
			c0.7,0,1.4-0.3,2.1-1c0.7-0.6,1.4-1.5,2.1-2.5c0.7-1,1.2-2,1.7-3l0.7,0.6c-0.6,1.4-1.2,2.6-2,3.8c-0.7,1.1-1.6,2-2.5,2.7
			C130.9,45.8,129.8,46.1,128.7,46.1z"/>
		<path class="st1" d="M137.6,46.5c-0.9,0-1.7-0.4-2.3-1.3s-0.9-1.9-0.9-3c0-0.8,0.1-1.7,0.4-2.8s0.6-2.1,1-3.1
			c0.4-1,0.8-1.8,1.3-2.5c0.4-0.7,0.8-1,1.2-1c0.2,0,0.5,0.1,0.9,0.3c0.4,0.2,0.8,0.5,1.1,0.8c-0.3,0.5-0.7,1.1-1.1,2.1
			c-0.4,0.9-0.8,1.9-1.2,3s-0.5,2-0.5,2.9c0,0.1,0,0.4,0.1,0.8s0.1,0.8,0.3,1.2c0.2,0.4,0.5,0.5,0.9,0.5c0.5,0,1-0.3,1.5-0.8
			c0.6-0.5,1.1-1.2,1.7-2c0.6-0.8,1.1-1.7,1.7-2.7c0.6-1,1-1.9,1.5-2.8c0.4-0.9,0.8-1.7,1.1-2.3c0.2,0,0.6,0.1,1,0.2
			s0.8,0.3,1.1,0.4c0.3,0.2,0.5,0.4,0.5,0.8c0,0.1-0.1,0.4-0.4,1c-0.3,0.6-0.6,1.3-0.9,2.2c-0.4,0.8-0.7,1.7-0.9,2.6
			c-0.3,0.9-0.4,1.7-0.4,2.3c0,0.4,0.1,0.7,0.2,1c0.1,0.3,0.5,0.4,0.9,0.4c0.6,0,1.3-0.3,2.1-0.8c0.8-0.5,1.6-1.3,2.5-2.3
			c0.9-1,1.6-2.2,2.3-3.6l0.6,0.5c-0.6,1.5-1.4,2.9-2.4,4.1s-2,2.2-3.1,2.8c-1.1,0.7-2.2,1-3.3,1c-0.8,0-1.4-0.2-1.8-0.6
			s-0.7-0.9-0.8-1.5c-0.1-0.6-0.2-1.2-0.2-1.8c0-0.1,0-0.3,0-0.4c0-0.2,0-0.3,0-0.4c-0.5,0.8-1,1.5-1.6,2.2
			c-0.6,0.7-1.2,1.3-1.8,1.8C139,46.3,138.3,46.5,137.6,46.5z"/>
	</g>
</g>
<text transform="matrix(1 0 0 1 15.5684 79.5095)" class="st2 st3 st4 st5">RESTAURANT</text>
<rect x="15.6" y="96.6" class="st1" width="188.8" height="2"/>
<rect x="156.1" y="38.2" class="st1" width="47.2" height="2"/>
<rect x="15.6" y="38.2" class="st1" width="52.8" height="2"/>
</svg>
